<?xml version="1.0" encoding="UTF-8"?>
<svg id="Layer_1" data-name="Layer 1" xmlns="http://www.w3.org/2000/svg" viewBox="0 0 512 512">
  <defs>
    <style>
      .cls-1 {
        fill: none;
        stroke: #9f8151;
        stroke-linecap: round;
        stroke-linejoin: round;
        stroke-width: 11px;
      }
    </style>
  </defs>
  <path class="cls-1" d="M434.69,95.91v-22.31c0-26.53-21.51-48.04-48.04-48.04h0c-26.53,0-48.04,21.51-48.04,48.04v280.87"/>
  <path class="cls-1" d="M235.51,95.91v-22.31c0-26.53-21.51-48.04-48.04-48.04h0c-26.53,0-48.04,21.51-48.04,48.04v280.87"/>
  <line class="cls-1" x1="338.61" y1="201.93" x2="143.39" y2="201.93"/>
  <line class="cls-1" x1="338.61" y1="293.09" x2="143.39" y2="293.09"/>
  <path class="cls-1" d="M499.97,404.64s-15.53-7.6-48.12,8.26c-27.15,13.21-49.43,6.94-74.53-2.32-25.1-9.26-48.95-13.72-73.32-4.61s-50.2,20.48-89.83,4.61c-39.63-15.86-68.04-4.61-83.89,1.33-15.85,5.94-47.55,11.75-74.11,0-26.56-11.75-44.13-9.25-44.13-9.25"/>
  <path class="cls-1" d="M499.97,470.62s-15.53-7.6-48.12,8.26c-27.15,13.21-49.43,6.94-74.53-2.32-25.1-9.26-48.95-13.72-73.32-4.61s-50.2,20.48-89.83,4.61c-39.63-15.86-68.04-4.61-83.89,1.33-15.85,5.94-47.55,11.75-74.11,0-26.56-11.75-44.13-9.25-44.13-9.25"/>
</svg>